<svg width="152" height="152" viewBox="0 0 152 152" fill="none" xmlns="http://www.w3.org/2000/svg">
<path d="M134.683 97.6856H146.817C150.694 97.7057 152 95.7343 152 93.3404V28.7263C152 6.21599 145.591 0 122.509 0H56.2745C53.8838 0 51.9352 1.9513 51.9352 4.34516V17.28C51.9352 19.6739 53.8838 21.6252 56.2745 21.6252H117.386C124.538 21.6252 130.344 27.4389 130.344 34.6003V93.3605C130.344 95.7343 132.272 97.6856 134.683 97.6856Z" fill="#120D21"/>
<path d="M30.0781 130.294H78.7143C83.2544 130.294 86.9308 126.613 86.9308 122.067V73.3647C86.9308 68.8184 83.2544 65.1371 78.7143 65.1371H30.0781C25.5379 65.1371 21.8615 68.8184 21.8615 73.3647V122.067C21.8816 126.613 25.5379 130.294 30.0781 130.294ZM94.8861 43.4314C101.937 43.4314 108.607 47.8972 108.607 58.1969L108.527 135.565C108.527 144.637 101.174 152 92.1138 152L18.9687 151.799C6.87493 151.799 0.16511 144.416 0.16511 132.326C0.16511 132.326 -0.0759619 88.955 0.0244846 59.8062C0.0646632 50.7538 7.39726 43.4314 16.4374 43.4314C38.8772 43.4314 76.4442 43.4314 94.8861 43.4314Z" fill="#372E83"/>
</svg>
